<svg width="185" height="181" viewBox="0 0 185 181" fill="none" xmlns="http://www.w3.org/2000/svg">
<path fill-rule="evenodd" clip-rule="evenodd" d="M109.437 108.173H74.2988V118.79V135.98H82.1354C82.1354 142.047 88.708 145.839 91.7416 145.839C94.7751 145.839 101.6 142.3 101.6 135.98H109.437V118.79V108.173ZM89.7192 118.79H91.7416H93.5111V129.913H89.7192V118.79Z" fill="white"/>
<path d="M109.437 118.79V108.173H74.2988V118.79M109.437 118.79C106.377 118.79 104.661 118.79 101.6 118.79C101.6 118.79 101.6 129.267 101.6 135.98M109.437 118.79C109.437 125.504 109.437 129.267 109.437 135.98M109.437 118.79H93.5111M109.437 118.79V135.98M74.2988 118.79V135.98M74.2988 118.79C77.3592 118.79 79.075 118.79 82.1354 118.79M74.2988 135.98C77.3592 135.98 79.075 135.98 82.1354 135.98M74.2988 135.98H82.1354M82.1354 135.98C82.1354 129.267 82.1354 125.504 82.1354 118.79M82.1354 135.98C82.1354 142.047 88.708 145.839 91.7416 145.839C94.7751 145.839 101.6 142.3 101.6 135.98M82.1354 118.79H89.7192M101.6 135.98C104.661 135.98 106.377 135.98 109.437 135.98M101.6 135.98H109.437M89.7192 118.79H91.7416H93.5111M89.7192 118.79V129.913H93.5111V118.79" stroke="black" stroke-width="2"/>
<rect x="61.1676" y="54.205" width="95.8965" height="7.23469" transform="rotate(45 61.1676 54.205)" fill="white" stroke="black" stroke-width="2"/>
<rect x="56.0519" y="118.538" width="94.898" height="7.23469" transform="rotate(-45 56.0519 118.538)" fill="white" stroke="black" stroke-width="2"/>
<circle cx="36.1684" cy="36.1684" r="30.6684" stroke="white" stroke-width="7"/>
<circle cx="36.1684" cy="144.214" r="30.6684" stroke="white" stroke-width="7"/>
<circle cx="148.832" cy="36.1684" r="30.6684" stroke="white" stroke-width="7"/>
<circle cx="148.832" cy="36.1684" r="6.23469" stroke="white" stroke-width="6"/>
<circle cx="36.1684" cy="36.1684" r="6.23469" stroke="white" stroke-width="6"/>
<circle cx="36.1684" cy="144.214" r="6.23469" stroke="white" stroke-width="6"/>
<circle cx="148.832" cy="144.214" r="6.23469" stroke="white" stroke-width="6"/>
<circle cx="148.832" cy="144.214" r="30.6684" stroke="white" stroke-width="7"/>
<path d="M170.071 128.515L156.779 140.52L152.526 136.519C154.152 134.918 160.779 130.038 170.071 128.515Z" fill="white"/>
<path d="M124.821 133.594L141.864 139.103L140.525 144.788C138.325 144.179 130.787 140.881 124.821 133.594Z" fill="white"/>
<path d="M151.84 170.029L148.09 152.515L153.682 150.832C154.255 153.042 155.168 161.22 151.84 170.029Z" fill="white"/>
<path d="M57.4081 128.515L44.1157 140.52L39.8622 136.519C41.4891 134.918 48.1153 130.038 57.4081 128.515Z" fill="white"/>
<path d="M12.1583 133.594L29.2012 139.103L27.8624 144.788C25.6623 144.179 18.1238 140.881 12.1583 133.594Z" fill="white"/>
<path d="M39.1774 170.029L35.4268 152.515L41.0192 150.832C41.5923 153.042 42.5047 161.22 39.1774 170.029Z" fill="white"/>
<path d="M57.4081 20.4694L44.1157 32.4745L39.8622 28.4728C41.4891 26.8716 48.1153 21.9925 57.4081 20.4694Z" fill="white"/>
<path d="M12.1583 25.5485L29.2012 31.0574L27.8624 36.742C25.6623 36.1336 18.1238 32.8347 12.1583 25.5485Z" fill="white"/>
<path d="M39.1774 61.9835L35.4268 44.4694L41.0192 42.7866C41.5923 44.9961 42.5047 53.174 39.1774 61.9835Z" fill="white"/>
<path d="M170.071 20.4694L156.779 32.4745L152.526 28.4728C154.152 26.8716 160.779 21.9925 170.071 20.4694Z" fill="white"/>
<path d="M124.821 25.5485L141.864 31.0574L140.525 36.742C138.325 36.1336 130.787 32.8347 124.821 25.5485Z" fill="white"/>
<path d="M151.84 61.9835L148.09 44.4694L153.682 42.7866C154.255 44.9961 155.168 53.174 151.84 61.9835Z" fill="white"/>
<rect x="75.0306" y="51.0204" width="34.0153" height="15.5459" fill="white" stroke="black" stroke-width="2"/>
<rect x="88.8826" y="50.8673" width="17.3929" height="7.23469" transform="rotate(-90 88.8826 50.8673)" fill="white" stroke="black" stroke-width="2"/>
<circle cx="36.1684" cy="36.1684" r="35.1684" stroke="black" stroke-width="2"/>
<circle cx="36.1684" cy="144.214" r="35.1684" stroke="black" stroke-width="2"/>
<circle cx="148.832" cy="36.1684" r="35.1684" stroke="black" stroke-width="2"/>
<circle cx="148.832" cy="144.214" r="35.1684" stroke="black" stroke-width="2"/>
<circle cx="92.5" cy="31.551" r="9.15816" fill="#E01621" stroke="black" stroke-width="2"/>
<circle cx="92.5001" cy="88.8061" r="21.7806" stroke="white" stroke-width="10"/>
<circle cx="92.5001" cy="88.8061" r="27.7806" stroke="black" stroke-width="2"/>
<circle cx="92.5" cy="88.8994" r="17" fill="#E01621" stroke="black" stroke-width="2"/>
</svg>
